<mxfile host="Electron" agent="Mozilla/5.0 (Macintosh; Intel Mac OS X 10_15_7) AppleWebKit/537.36 (KHTML, like Gecko) draw.io/28.1.2 Chrome/138.0.7204.243 Electron/37.4.0 Safari/537.36" version="28.1.2" pages="2">
  <diagram name="Page-1" id="QIGR8ZJ2Y7UqB9H9Uzyi">
    <mxGraphModel dx="2702" dy="2338" grid="1" gridSize="10" guides="1" tooltips="1" connect="1" arrows="1" fold="1" page="0" pageScale="1" pageWidth="850" pageHeight="1100" math="0" shadow="0">
      <root>
        <mxCell id="0" />
        <mxCell id="1" parent="0" />
        <mxCell id="Y8vlpzMTkVA_uUTsF3UQ-2" value="" style="sketch=0;outlineConnect=0;fontColor=#232F3E;gradientColor=none;fillColor=#232F3D;strokeColor=none;dashed=0;verticalLabelPosition=bottom;verticalAlign=top;align=center;html=1;fontSize=12;fontStyle=0;aspect=fixed;pointerEvents=1;shape=mxgraph.aws4.user;" parent="1" vertex="1">
          <mxGeometry x="90" y="-70" width="78" height="78" as="geometry" />
        </mxCell>
        <mxCell id="Y8vlpzMTkVA_uUTsF3UQ-4" value="" style="sketch=0;outlineConnect=0;fontColor=#232F3E;gradientColor=none;fillColor=#232F3D;strokeColor=none;dashed=0;verticalLabelPosition=bottom;verticalAlign=top;align=center;html=1;fontSize=12;fontStyle=0;aspect=fixed;pointerEvents=1;shape=mxgraph.aws4.traditional_server;" parent="1" vertex="1">
          <mxGeometry x="380" y="-70" width="45" height="78" as="geometry" />
        </mxCell>
        <mxCell id="Y8vlpzMTkVA_uUTsF3UQ-5" value="User" style="text;html=1;align=center;verticalAlign=middle;resizable=0;points=[];autosize=1;strokeColor=none;fillColor=none;" parent="1" vertex="1">
          <mxGeometry x="104" y="8" width="50" height="30" as="geometry" />
        </mxCell>
        <mxCell id="Y8vlpzMTkVA_uUTsF3UQ-6" value="" style="endArrow=classic;html=1;rounded=0;strokeWidth=3;" parent="1" edge="1">
          <mxGeometry width="50" height="50" relative="1" as="geometry">
            <mxPoint x="180" y="-50" as="sourcePoint" />
            <mxPoint x="360" y="-50" as="targetPoint" />
          </mxGeometry>
        </mxCell>
        <mxCell id="Y8vlpzMTkVA_uUTsF3UQ-7" value="" style="endArrow=classic;html=1;rounded=0;strokeWidth=3;" parent="1" edge="1">
          <mxGeometry width="50" height="50" relative="1" as="geometry">
            <mxPoint x="360" y="-20" as="sourcePoint" />
            <mxPoint x="180" y="-20" as="targetPoint" />
          </mxGeometry>
        </mxCell>
        <mxCell id="Y8vlpzMTkVA_uUTsF3UQ-8" value="" style="sketch=0;outlineConnect=0;fontColor=#232F3E;gradientColor=none;fillColor=#232F3D;strokeColor=none;dashed=0;verticalLabelPosition=bottom;verticalAlign=top;align=center;html=1;fontSize=12;fontStyle=0;aspect=fixed;pointerEvents=1;shape=mxgraph.aws4.user;" parent="1" vertex="1">
          <mxGeometry x="90" y="130" width="78" height="78" as="geometry" />
        </mxCell>
        <mxCell id="Y8vlpzMTkVA_uUTsF3UQ-9" value="User" style="text;html=1;align=center;verticalAlign=middle;resizable=0;points=[];autosize=1;strokeColor=none;fillColor=none;" parent="1" vertex="1">
          <mxGeometry x="104" y="208" width="50" height="30" as="geometry" />
        </mxCell>
        <mxCell id="Y8vlpzMTkVA_uUTsF3UQ-10" value="" style="sketch=0;outlineConnect=0;fontColor=#232F3E;gradientColor=none;fillColor=#232F3D;strokeColor=none;dashed=0;verticalLabelPosition=bottom;verticalAlign=top;align=center;html=1;fontSize=12;fontStyle=0;aspect=fixed;pointerEvents=1;shape=mxgraph.aws4.traditional_server;" parent="1" vertex="1">
          <mxGeometry x="384" y="140" width="41" height="71.07" as="geometry" />
        </mxCell>
        <mxCell id="Y8vlpzMTkVA_uUTsF3UQ-12" value="" style="endArrow=classic;html=1;rounded=0;strokeWidth=3;" parent="1" edge="1">
          <mxGeometry width="50" height="50" relative="1" as="geometry">
            <mxPoint x="180" y="160" as="sourcePoint" />
            <mxPoint x="360" y="160" as="targetPoint" />
          </mxGeometry>
        </mxCell>
        <mxCell id="Y8vlpzMTkVA_uUTsF3UQ-13" value="" style="endArrow=classic;html=1;rounded=0;strokeWidth=3;" parent="1" edge="1">
          <mxGeometry width="50" height="50" relative="1" as="geometry">
            <mxPoint x="360" y="190" as="sourcePoint" />
            <mxPoint x="180" y="190" as="targetPoint" />
          </mxGeometry>
        </mxCell>
        <mxCell id="Y8vlpzMTkVA_uUTsF3UQ-14" value="" style="strokeWidth=3;html=1;shape=mxgraph.flowchart.database;whiteSpace=wrap;" parent="1" vertex="1">
          <mxGeometry x="530" y="145.53" width="60" height="60" as="geometry" />
        </mxCell>
        <mxCell id="Y8vlpzMTkVA_uUTsF3UQ-15" value="" style="endArrow=classic;html=1;rounded=0;strokeWidth=3;" parent="1" edge="1">
          <mxGeometry width="50" height="50" relative="1" as="geometry">
            <mxPoint x="440" y="159.87" as="sourcePoint" />
            <mxPoint x="510" y="160" as="targetPoint" />
          </mxGeometry>
        </mxCell>
        <mxCell id="Y8vlpzMTkVA_uUTsF3UQ-16" value="" style="endArrow=classic;html=1;rounded=0;strokeWidth=3;" parent="1" edge="1">
          <mxGeometry width="50" height="50" relative="1" as="geometry">
            <mxPoint x="510" y="190" as="sourcePoint" />
            <mxPoint x="440" y="189.87" as="targetPoint" />
          </mxGeometry>
        </mxCell>
        <mxCell id="Y8vlpzMTkVA_uUTsF3UQ-17" value="静的ウェブサイト" style="text;html=1;align=center;verticalAlign=middle;resizable=0;points=[];autosize=1;strokeColor=none;fillColor=none;" parent="1" vertex="1">
          <mxGeometry x="80" y="-120" width="120" height="30" as="geometry" />
        </mxCell>
        <mxCell id="Y8vlpzMTkVA_uUTsF3UQ-18" value="" style="rounded=0;whiteSpace=wrap;html=1;fillColor=none;strokeWidth=3;strokeColor=#6c8ebf;" parent="1" vertex="1">
          <mxGeometry x="80" y="-120" width="560" height="160" as="geometry" />
        </mxCell>
        <mxCell id="Y8vlpzMTkVA_uUTsF3UQ-19" value="" style="rounded=0;whiteSpace=wrap;html=1;fillColor=none;strokeWidth=3;strokeColor=#b85450;" parent="1" vertex="1">
          <mxGeometry x="80" y="80" width="560" height="160" as="geometry" />
        </mxCell>
        <mxCell id="Y8vlpzMTkVA_uUTsF3UQ-20" value="Server" style="text;html=1;align=center;verticalAlign=middle;resizable=0;points=[];autosize=1;strokeColor=none;fillColor=none;" parent="1" vertex="1">
          <mxGeometry x="372.5" y="208" width="60" height="30" as="geometry" />
        </mxCell>
        <mxCell id="Y8vlpzMTkVA_uUTsF3UQ-21" value="Server" style="text;html=1;align=center;verticalAlign=middle;resizable=0;points=[];autosize=1;strokeColor=none;fillColor=none;" parent="1" vertex="1">
          <mxGeometry x="372.5" y="8" width="60" height="30" as="geometry" />
        </mxCell>
        <mxCell id="Y8vlpzMTkVA_uUTsF3UQ-22" value="Database" style="text;html=1;align=center;verticalAlign=middle;resizable=0;points=[];autosize=1;strokeColor=none;fillColor=none;" parent="1" vertex="1">
          <mxGeometry x="525" y="205.53" width="70" height="30" as="geometry" />
        </mxCell>
        <mxCell id="Y8vlpzMTkVA_uUTsF3UQ-24" value="動的ウェブサイト" style="text;html=1;align=center;verticalAlign=middle;resizable=0;points=[];autosize=1;strokeColor=none;fillColor=none;" parent="1" vertex="1">
          <mxGeometry x="80" y="80" width="120" height="30" as="geometry" />
        </mxCell>
        <mxCell id="Y8vlpzMTkVA_uUTsF3UQ-25" value="Request" style="text;html=1;align=center;verticalAlign=middle;resizable=0;points=[];autosize=1;strokeColor=none;fillColor=none;" parent="1" vertex="1">
          <mxGeometry x="240" y="-80" width="70" height="30" as="geometry" />
        </mxCell>
        <mxCell id="Y8vlpzMTkVA_uUTsF3UQ-26" value="Response" style="text;html=1;align=center;verticalAlign=middle;resizable=0;points=[];autosize=1;strokeColor=none;fillColor=none;" parent="1" vertex="1">
          <mxGeometry x="235" y="-22" width="80" height="30" as="geometry" />
        </mxCell>
        <mxCell id="Y8vlpzMTkVA_uUTsF3UQ-27" value="Request" style="text;html=1;align=center;verticalAlign=middle;resizable=0;points=[];autosize=1;strokeColor=none;fillColor=none;" parent="1" vertex="1">
          <mxGeometry x="240" y="130" width="70" height="30" as="geometry" />
        </mxCell>
        <mxCell id="Y8vlpzMTkVA_uUTsF3UQ-28" value="Response" style="text;html=1;align=center;verticalAlign=middle;resizable=0;points=[];autosize=1;strokeColor=none;fillColor=none;" parent="1" vertex="1">
          <mxGeometry x="235" y="190" width="80" height="30" as="geometry" />
        </mxCell>
      </root>
    </mxGraphModel>
  </diagram>
  <diagram id="bEf-EtUhpJ5U9Sx-UNNw" name="Page-2">
    <mxGraphModel dx="706" dy="604" grid="1" gridSize="10" guides="1" tooltips="1" connect="1" arrows="1" fold="1" page="1" pageScale="1" pageWidth="850" pageHeight="1100" math="0" shadow="0">
      <root>
        <mxCell id="0" />
        <mxCell id="1" parent="0" />
      </root>
    </mxGraphModel>
  </diagram>
</mxfile>
